<svg xmlns="http://www.w3.org/2000/svg" width="77" height="94" viewBox="-0.5 -0.5 77 94"><path fill="#00D66C" d="M76 38.084C76 16.874 59.215 0 38 0S0 16.87 0 38.087c0 21.207 16.79 38.065 38 38.065 21.21.004 37.996-16.858 37.996-38.065l.004-.003z"/><path fill="#fff" d="M54.887 43.676H52.75c-2.135 0-3.048 1.14-3.357 3.353-.537 4.046-3.74 6.784-7.938 6.784-4.88 0-8.005-3.584-8.005-8.774V32.835c0-.488-.07-.918-.188-1.302.457.205 1.005.313 1.633.313H46.11c2.143 0 3.356-1.223 3.356-3.36V27.5c0-2.142-1.215-3.358-3.357-3.358h-6.326v-6.874c0-2.133-1.226-3.357-3.358-3.357h-1.53c-2.134 0-3.354 1.226-3.354 3.358v11.22c0 .483.062.914.188 1.302-.46-.204-1.01-.312-1.638-.312H18.876c-2.136 0-3.358 1.223-3.358 3.357v.994c0 2.135 1.222 3.357 3.358 3.357h6.334v7.85c0 9.843 6.332 16.71 16.252 16.71 9.233 0 15.334-5.875 16.48-14.722.304-2.214-1.147-3.35-3.054-3.35h-.002z"/><path fill="#00D66C" d="M7.39 92.827h2.065V88.34c0-1.624.887-2.19 1.944-2.19.614 0 1.07.186 1.487.542l.935-1.648c-.566-.516-1.317-.77-2.054-.77-.984 0-1.943.452-2.435 1.337l-.135-1.165H7.39v8.382zm58.255-10.38c0-.8-.613-1.204-1.23-1.204-.602 0-1.217.403-1.217 1.204 0 .813.615 1.205 1.218 1.205.613 0 1.23-.392 1.23-1.205zm-62.03-.416l-2.066.222v2.19H0v1.782h1.548v3.75c0 2.017 1.156 2.95 2.89 2.95.74 0 1.366-.17 1.808-.42l-.553-1.67a2.51 2.51 0 0 1-1.01.233c-.687 0-1.068-.395-1.068-1.192v-3.65h2.312V84.44H3.614v-2.41zm19.21 2.41h-1.858l-.136 1.17c-.466-.775-1.39-1.34-2.827-1.34-2.3 0-4.292 1.437-4.292 4.364S15.704 93 18.004 93c1.438 0 2.36-.563 2.83-1.34l.135 1.17h1.855v-8.39zm40.557 0v8.388h2.067V84.44H63.38zm-45.096 6.764c-1.414 0-2.47-.945-2.47-2.57 0-1.622 1.056-2.57 2.47-2.57 1.416 0 2.473.946 2.473 2.57 0 1.624-1.058 2.57-2.474 2.57zm33.746-6.763h-1.858l-.137 1.17c-.467-.775-1.387-1.34-2.826-1.34-2.3 0-4.29 1.437-4.29 4.364S44.91 93 47.21 93c1.44 0 2.362-.563 2.828-1.34l.137 1.17h1.857v-8.39zm-4.54 6.764c-1.413 0-2.473-.945-2.473-2.57 0-1.622 1.058-2.57 2.472-2.57 1.416 0 2.475.946 2.475 2.57 0 1.624-1.06 2.57-2.475 2.57zM76 84.44h-1.857l-.136 1.17c-.466-.775-1.39-1.34-2.827-1.34-2.3 0-4.293 1.437-4.293 4.364S68.88 93 71.18 93c1.438 0 2.36-.563 2.827-1.34l.136 1.17H76v-8.39zm-4.538 6.764c-1.412 0-2.474-.945-2.474-2.57 0-1.622 1.06-2.57 2.474-2.57s2.474.946 2.474 2.57c0 1.624-1.06 2.57-2.474 2.57zm-12.665 1.623l3.578-8.386h-2.152l-2.447 6.186-2.45-6.185H53.04l3.578 8.387h2.18zm-34.005 0h2.067v-4.5c0-1.413.91-2.214 2.113-2.214s2.03.8 2.03 2.214v4.5h2.066V88.02c0-2.496-1.552-3.748-3.532-3.748-1.315 0-2.287.554-2.753 1.338l-.135-1.168h-1.857v8.39-.005zm13.49.172c2.596 0 3.69-1.18 3.69-2.668 0-1.882-1.77-2.35-3.2-2.534-.82-.112-2.087-.185-2.087-.995 0-.605.713-.863 1.598-.863.8 0 1.6.21 2.25.773l1.045-1.378c-.92-.8-1.99-1.07-3.197-1.07-1.794 0-3.787.615-3.787 2.632 0 1.855 1.672 2.35 3.197 2.545.87.11 2.09.195 2.09.996 0 .59-.663.86-1.525.86-.973 0-2.25-.354-3.027-1.17l-1.044 1.38c1.057 1.17 2.645 1.49 3.997 1.49h.002z"/></svg>