<?xml version="1.0" standalone="no"?>
<!DOCTYPE svg PUBLIC "-//W3C//DTD SVG 20010904//EN"
 "http://www.w3.org/TR/2001/REC-SVG-20010904/DTD/svg10.dtd">
<svg version="1.0" xmlns="http://www.w3.org/2000/svg"
 width="810.000000pt" height="810.000000pt" viewBox="0 0 810.000000 810.000000"
 preserveAspectRatio="xMidYMid meet">
<metadata>
Created by potrace 1.11, written by Peter Selinger 2001-2013
</metadata>
<g transform="translate(0.000000,810.000000) scale(0.100000,-0.100000)"
fill="#000000" stroke="none">
<path d="M2550 8093 c-123 -33 -167 -122 -178 -357 l-7 -140 -50 -24 c-186
-92 -410 -225 -570 -340 -269 -193 -569 -473 -770 -719 -5 -7 -16 -19 -23 -28
-112 -132 -271 -370 -391 -585 -214 -380 -384 -889 -446 -1332 -3 -21 -8 -55
-11 -75 -27 -177 -37 -569 -21 -802 5 -63 10 -122 12 -132 2 -10 6 -46 10 -81
3 -35 8 -70 10 -78 3 -8 7 -33 10 -55 16 -127 88 -422 143 -590 86 -259 204
-526 320 -725 24 -40 27 -56 28 -150 8 -641 321 -1174 866 -1473 137 -76 388
-162 528 -182 24 -4 47 -8 51 -10 9 -6 177 -19 244 -19 90 1 162 13 240 41 96
34 93 34 230 -17 62 -24 92 -33 210 -65 176 -48 385 -91 535 -110 25 -3 61 -8
80 -10 195 -27 766 -27 908 0 10 1 46 6 82 11 36 4 67 8 70 9 7 2 88 16 125
21 345 55 850 237 1197 432 199 112 498 313 571 385 16 16 28 17 100 10 45 -4
134 -7 197 -7 134 1 206 23 312 95 149 101 345 333 428 504 32 68 100 256 100
279 0 6 32 44 70 83 39 40 70 76 70 81 0 4 -30 23 -67 41 l-67 33 80 50 79 51
-83 22 c-46 12 -88 27 -93 32 -7 7 4 40 36 103 l46 92 -40 -7 -41 -7 21 49
c11 26 27 61 34 78 60 128 188 548 219 720 36 195 52 303 62 420 3 39 7 90 10
115 5 54 5 433 0 510 -6 83 -17 209 -21 228 -1 9 -6 40 -9 67 -73 564 -299
1163 -619 1640 -118 176 -138 204 -236 325 -123 150 -284 320 -419 442 -47 42
-54 53 -63 105 -14 81 -66 119 -84 62 -9 -27 -24 -24 -67 14 -35 29 -38 37
-40 90 -1 31 -8 66 -15 77 -27 38 -93 15 -93 -32 0 -23 -1 -23 -62 17 -28 19
-53 45 -64 70 -18 38 -21 40 -64 41 -35 0 -62 10 -125 48 -103 63 -325 174
-440 220 -49 21 -103 43 -120 51 -85 38 -385 131 -500 155 -22 4 -85 18 -140
29 -116 25 -262 48 -361 57 -38 3 -80 8 -94 10 -14 3 -119 7 -235 10 -169 5
-221 9 -265 24 -30 11 -68 22 -85 24 -16 3 -45 10 -62 15 -18 5 -33 8 -33 6 0
-3 -11 0 -23 4 -23 9 -195 24 -267 24 -42 0 -210 -12 -236 -17 -11 -2 -39 -7
-64 -12 -25 -4 -47 -8 -50 -9 -3 0 -23 -4 -45 -8 -22 -5 -61 -15 -88 -23 l-47
-16 -63 35 c-104 58 -227 93 -277 80z"/>
</g>
</svg>
