<?xml version="1.0" encoding="utf-8"?>
<!-- Generator: Adobe Illustrator 15.0.0, SVG Export Plug-In  -->
<!DOCTYPE svg PUBLIC "-//W3C//DTD SVG 1.1//EN" "http://www.w3.org/Graphics/SVG/1.1/DTD/svg11.dtd" [
	<!ENTITY ns_flows "http://ns.adobe.com/Flows/1.0/">
]>
<svg version="1.1"
	 xmlns="http://www.w3.org/2000/svg" xmlns:xlink="http://www.w3.org/1999/xlink" xmlns:a="http://ns.adobe.com/AdobeSVGViewerExtensions/3.0/"
	 x="0px" y="0px" width="228px" height="215px" viewBox="0 0 228 215" style="enable-background:new 0 0 228 215;"
	 xml:space="preserve">
<style type="text/css">
<![CDATA[
	.st0{fill:none;stroke:#FFFFFF;stroke-width:2.25;stroke-miterlimit:10;}
	.st1{fill:#231F20;}
	.st2{fill:url(#SVGID_1_);}
	.st3{fill:url(#SVGID_3_);}
	.st4{fill:#FFFFFF;}
	.st5{fill:url(#SVGID_4_);stroke:#FFFFFF;stroke-width:2.25;stroke-miterlimit:10;}
	.st6{fill:url(#SVGID_2_);stroke:#FFFFFF;stroke-width:2.25;stroke-miterlimit:10;}
]]>
</style>
<defs>
</defs>
<g>
	<linearGradient id="SVGID_1_" gradientUnits="userSpaceOnUse" x1="1.125" y1="81.3315" x2="104.3496" y2="81.3315">
		<stop  offset="0" style="stop-color:#4E7FE0"/>
		<stop  offset="1" style="stop-color:#325FB7"/>
	</linearGradient>
	<path class="st2" d="M104.35,8.211c0-3.897-3.189-7.086-7.087-7.086H8.211c-3.896,0-7.086,3.189-7.086,7.086V130.19
		c0,3.897,0,10.275,0,14.173v13.441c0,3.897,2.329,4.908,5.176,2.246l19.176-17.934c2.847-2.662,8.365-4.84,12.262-4.84h59.524
		c3.897,0,7.087-3.189,7.087-7.086V8.211z"/>
	<path class="st0" d="M104.35,8.211c0-3.897-3.189-7.086-7.087-7.086H8.211c-3.896,0-7.086,3.189-7.086,7.086V130.19
		c0,3.897,0,10.275,0,14.173v13.441c0,3.897,2.329,4.908,5.176,2.246l19.176-17.934c2.847-2.662,8.365-4.84,12.262-4.84h59.524
		c3.897,0,7.087-3.189,7.087-7.086V8.211z"/>
</g>
<linearGradient id="SVGID_2_" gradientUnits="userSpaceOnUse" x1="1.125" y1="69.7007" x2="104.3496" y2="69.7007">
	<stop  offset="0" style="stop-color:#D83F29"/>
	<stop  offset="1" style="stop-color:#BC231D"/>
</linearGradient>
<rect x="1.125" y="14.125" class="st6" width="103.225" height="111.152"/>
<path class="st1" d="M28.869,214.252H25.92v-3.816c-2.256,2.833-6.153,4.249-11.691,4.249c-4.168,0-7.271-0.812-9.31-2.436
	c-1.732-1.371-2.878-3.563-3.438-6.577c-0.324-1.858-0.487-5.151-0.487-9.878c0-4.871,0.181-8.254,0.542-10.148
	c0.595-2.959,1.876-5.115,3.843-6.468c2.165-1.515,5.557-2.273,10.176-2.273c4.546,0,7.856,0.722,9.932,2.165
	c2.255,1.588,3.383,4.186,3.383,7.794h-3.221c0-2.58-0.775-4.371-2.327-5.372c-1.552-1.001-4.303-1.502-8.254-1.502
	c-4.583,0-7.596,1.02-9.039,3.058c-0.668,0.993-1.109,2.21-1.326,3.654c-0.289,1.696-0.433,4.727-0.433,9.093
	c0,4.294,0.144,7.343,0.433,9.147c0.253,1.407,0.713,2.607,1.38,3.599c1.443,2.039,4.402,3.058,8.877,3.058
	c4.51,0,7.577-1.164,9.201-3.491c0.848-1.191,1.362-2.986,1.543-5.386c0.071-0.956,0.108-2.859,0.108-5.71v-0.271H14.742v-2.95
	h14.127V214.252z"/>
<path class="st1" d="M64.62,214.252h-3.221v-9.093c0-1.984-0.036-3.311-0.108-3.978c-0.181-1.083-0.587-1.944-1.218-2.584
	c-0.632-0.64-1.759-1.042-3.383-1.205c-0.776-0.072-2.806-0.108-6.089-0.108h-8.715v16.968h-3.274v-36.968h12.151
	c5.25,0,8.669,0.442,10.257,1.326c2.399,1.372,3.6,4.421,3.6,9.147c0,4.168-1.39,6.829-4.168,7.983
	c2.038,0.596,3.338,1.94,3.896,4.033c0.181,0.866,0.271,2.625,0.271,5.277V214.252z M61.399,187.595
	c0-3.482-1.011-5.684-3.031-6.604c-1.155-0.469-3.726-0.704-7.713-0.704h-8.769v14.019h9.094c4.185,0,6.756-0.207,7.713-0.623
	C60.497,192.909,61.399,190.879,61.399,187.595z"/>
<path class="st1" d="M77.799,214.252h-3.274v-36.968h3.274V214.252z"/>
<path class="st1" d="M115.497,195.795c0,3.428-0.054,5.792-0.162,7.091c-0.289,2.851-0.956,5.087-2.003,6.711
	c-1.064,1.732-2.521,2.941-4.37,3.626c-1.85,0.686-4.506,1.028-7.971,1.028H88.056v-36.968h12.936c3.428,0,6.076,0.343,7.943,1.028
	s3.329,1.867,4.384,3.545c1.056,1.678,1.728,3.961,2.017,6.847C115.443,190.003,115.497,192.367,115.497,195.795z M112.223,195.795
	c0-6.423-0.641-10.599-1.921-12.53c-0.704-1.064-1.742-1.818-3.112-2.26c-1.372-0.442-3.555-0.663-6.55-0.663h-9.31v30.852h9.31
	c2.995,0,5.178-0.212,6.55-0.636c1.37-0.424,2.408-1.168,3.112-2.233C111.582,206.431,112.223,202.254,112.223,195.795z"/>
<path class="st1" d="M124.591,214.252v-36.965h4.933v32.532h18.787v4.434H124.591z"/>
<path class="st1" d="M153.411,214.252v-36.965h4.933v36.965H153.411z"/>
<path class="st1" d="M189.436,214.252l-17.014-28.818v28.818h-4.767v-36.965h5.154l17.069,28.652v-28.652h4.766v36.965H189.436z"/>
<path class="st1" d="M203.958,214.252v-36.965h24.274v4.434h-19.342v11.361h18.787v4.434h-18.787v12.303h19.342v4.434H203.958z"/>
<path class="st4" d="M85.219,70.213l-11.36-8.081c-0.724-0.547-1.717-0.547-2.438,0l-11.441,8.145
	c-0.025,0.016-0.047,0.036-0.071,0.054l-0.239,0.181l0.008,0.01c-0.375,0.368-0.609,0.879-0.609,1.446
	c0,1.121,0.909,2.028,2.029,2.028c0.367,0,0.709-0.106,1.007-0.278l0.003,0.005l0.033-0.026c0.137-0.082,0.265-0.175,0.379-0.286
	l7.893-5.456c-0.064,5.861-0.069,19.437-0.069,19.437c-0.114,10.55-5.403,14.118-20.95,14.118c-20.313,0-21.266-9.302-21.266-27.139
	v-9.917c0-18.373,0.906-27.211,21.266-27.211l20.996,0.026v-0.021c1.176-0.034,2.121-0.992,2.121-2.176
	c0-1.185-0.945-2.144-2.121-2.177v-0.002h-0.025c-0.013,0-0.023-0.004-0.037-0.004c-0.01,0-0.021,0.003-0.033,0.003l-19.955-0.089
	c-25.523,0-26.879,11.999-26.969,31.569v9.999c0.09,19.594,1.445,31.592,26.969,31.592c17.449,0,24.561-5.39,24.561-18.599
	c-0.011,0-0.011-6.808-0.011-12.867c0-2.47,0-4.814,0-6.528l8.289,5.753l0.014-0.018c0.304,0.18,0.652,0.29,1.03,0.29
	c1.119,0,2.028-0.908,2.028-2.028C86.248,71.213,85.831,70.563,85.219,70.213z"/>
</svg>
