<?xml version="1.0" encoding="utf-8"?>
<!-- Generator: Adobe Illustrator 15.0.0, SVG Export Plug-In  -->
<!DOCTYPE svg PUBLIC "-//W3C//DTD SVG 1.1//EN" "http://www.w3.org/Graphics/SVG/1.1/DTD/svg11.dtd" [
	<!ENTITY ns_flows "http://ns.adobe.com/Flows/1.0/">
]><svg xmlns="http://www.w3.org/2000/svg" xmlns:xlink="http://www.w3.org/1999/xlink" width="146" height="22" viewBox="0 0 106 16" role="img"><defs><path id="a" d="M65.655 13.97V6.818c0-1.76-.89-3.358-2.641-3.358-1.727 0-2.748 1.598-2.748 3.358v7.152h-3.19V.588h2.955l.235 1.625C60.947.86 62.438.372 63.666.372c1.544 0 3.088.65 3.82 2.491C68.639.967 70.13.426 71.804.426c3.663 0 5.468 2.33 5.468 6.338v7.206H74.08V6.764c0-1.76-.706-3.25-2.434-3.25-1.726 0-2.799 1.544-2.799 3.304v7.152h-3.192zM45.298.615v6.99c0 2.03 1.073 3.576 3.113 3.576 1.963 0 3.296-1.708 3.296-3.74V.616h3.165v13.382h-2.85l-.21-1.814c-1.333 1.354-2.564 2.004-4.369 2.004-3.087 0-5.336-2.411-5.336-6.556V.615h3.191zm-8.08 0h3.819v.108L36.799 7.2l4.5 6.69v.08h-3.82l-2.8-4.468-2.798 4.469h-3.82v-.081l4.5-6.69L28.323.723V.615h3.818L34.68 5.14 37.217.615zm-13.188 0h3.06V13.97h-3.008l-.157-1.95c-.732 1.571-2.747 2.329-4.185 2.356-3.82.028-6.646-2.41-6.646-7.097 0-4.604 2.957-7.015 6.724-6.988 1.727 0 3.375.838 4.107 2.166L24.03.615zM16.286 7.28c0 2.546 1.7 4.064 3.82 4.064 5.023 0 5.023-8.1 0-8.1-2.12 0-3.82 1.49-3.82 4.036zM9.404 4.164c-.916-.895-1.962-1.192-3.192-1.192-1.517 0-2.354.488-2.354 1.327 0 .867.758 1.354 2.406 1.463 2.434.163 5.52.731 5.52 4.28 0 2.357-1.857 4.388-5.546 4.388-2.04 0-4.081-.352-5.965-2.383l1.57-2.357c.916 1.056 3.009 1.843 4.448 1.87 1.203.027 2.328-.623 2.328-1.6 0-.92-.733-1.3-2.563-1.408C3.622 8.362.719 7.442.719 4.408c0-3.089 3.086-4.172 5.44-4.172 2.015 0 3.533.407 5.024 1.761L9.404 4.164z"></path></defs><g fill="none" fill-rule="evenodd"><g transform="translate(28.399 .667)" opacity="1"><mask id="b" fill="#fff"><use xlink:href="#a"></use></mask><g fill="#ffffff" mask="url(#b)"><path d="M0-.667h77v16H0z"></path></g></g><g fill="#11D1D1"><path d="M10.4 10.667V5.333L0 0v5.333z" opacity=".2"></path><path d="M0 16v-5.333l10.4-5.334v5.334z" opacity=".4"></path><path d="M21.732 0v5.333l-10.399 5.334V5.333z" opacity=".6"></path><path d="M11.333 5.333v5.334L21.732 16v-5.333z" opacity=".8"></path></g></g></svg>